<?xml version="1.0" encoding="UTF-8" standalone="no" ?>
<!DOCTYPE svg PUBLIC "-//W3C//DTD SVG 1.1//EN" "http://www.w3.org/Graphics/SVG/1.1/DTD/svg11.dtd">
<svg xmlns="http://www.w3.org/2000/svg" xmlns:xlink="http://www.w3.org/1999/xlink" version="1.1" width="128" height="128" viewBox="0 0 128 128" xml:space="preserve">
<desc>Created with Fabric.js 5.3.0</desc>
<defs>
</defs>
<g transform="matrix(1 0 0 1 64 63.9999981539)" id="gmcPqbH2KkZHNHIcSF6DX"  >
<g style="" vector-effect="non-scaling-stroke"   >
		<g transform="matrix(0.3195876137 0 0 1.0412370878 -22.1769522182 -35.1522166771)" id="GGU4xwW9mgAXDAGxlkYHI"  >
<path style="stroke: rgb(185,70,195); stroke-width: 0; stroke-dasharray: none; stroke-linecap: butt; stroke-dashoffset: 0; stroke-linejoin: miter; stroke-miterlimit: 4; fill: rgb(126,86,50); fill-rule: nonzero; opacity: 1;" vector-effect="non-scaling-stroke"  transform=" translate(0.000005, -0.000005)" d="M -12.25735 -6.67479 C -12.25735 -9.75795 -4.11416 -12.25734 5.93097 -12.25734 L 12.25734 -12.25734 L 12.25734 6.674800000000001 L 12.25734 6.674800000000001 C 12.25734 9.75796 4.114149999999999 12.257350000000002 -5.930980000000002 12.257350000000002 L -12.257350000000002 12.257350000000002 z" stroke-linecap="round" />
</g>
		<g transform="matrix(0.3195876137 0 0 1.0412370878 11.3727958221 -35.1522191212)" id="gLoN4Mirihk3_t_IlUAaR"  >
<path style="stroke: rgb(185,70,195); stroke-width: 0; stroke-dasharray: none; stroke-linecap: butt; stroke-dashoffset: 0; stroke-linejoin: miter; stroke-miterlimit: 4; fill: rgb(126,86,50); fill-rule: nonzero; opacity: 1;" vector-effect="non-scaling-stroke"  transform=" translate(0.000005, -0.000005)" d="M -12.25735 -6.67479 C -12.25735 -9.75795 -4.11416 -12.25734 5.93097 -12.25734 L 12.25734 -12.25734 L 12.25734 6.674800000000001 L 12.25734 6.674800000000001 C 12.25734 9.75796 4.114149999999999 12.257350000000002 -5.930980000000002 12.257350000000002 L -12.257350000000002 12.257350000000002 z" stroke-linecap="round" />
</g>
		<g transform="matrix(0.3195876137 0 0 1.3917526023 -4.9913938638 -39.4486087098)" id="q24oH9wCs_AXN2EsgC3dx"  >
<path style="stroke: rgb(185,70,195); stroke-width: 0; stroke-dasharray: none; stroke-linecap: butt; stroke-dashoffset: 0; stroke-linejoin: miter; stroke-miterlimit: 4; fill: rgb(126,86,50); fill-rule: nonzero; opacity: 1;" vector-effect="non-scaling-stroke"  transform=" translate(0.000005, 0)" d="M -12.25735 -8.08077 C -12.25735 -10.387429999999998 -4.11416 -12.257349999999999 5.93097 -12.257349999999999 L 12.25734 -12.257349999999999 L 12.25734 8.080770000000001 L 12.25734 8.080770000000001 C 12.25734 10.387430000000002 4.114149999999999 12.257350000000002 -5.930980000000002 12.257350000000002 L -12.257350000000002 12.257350000000002 z" stroke-linecap="round" />
</g>
		<g transform="matrix(1 0 0 1 40.1838753007 9.1385123901)" id="-FXLAsgaoiagfarHEbFdN"  >
<path style="stroke: rgb(10,192,99); stroke-width: 0; stroke-dasharray: none; stroke-linecap: butt; stroke-dashoffset: 0; stroke-linejoin: miter; stroke-miterlimit: 4; fill: rgb(114,114,114); fill-rule: nonzero; opacity: 1;" vector-effect="non-scaling-stroke"  transform=" translate(-18.51239, -18.51239)" d="M 18.51239 0 C 28.73123 0 37.02478 8.29355 37.02478 18.51239 C 37.02478 28.73123 28.73123 37.02478 18.51239 37.02478 C 8.29355 37.02478 0 28.73123 0 18.51239 C 0 8.29355 8.29355 0 18.51239 0 z M 10.21972 18.31594 C 10.21972 22.89349 13.934830000000002 26.608600000000003 18.51238 26.608600000000003 C 23.08993 26.608600000000003 26.805039999999998 22.893490000000003 26.805039999999998 18.315940000000005 C 26.805039999999998 13.738390000000006 23.08993 10.416150000000005 18.51238 10.416150000000005 C 13.934830000000002 10.416150000000005 10.21972 13.738390000000006 10.21972 18.315940000000005 z" stroke-linecap="round" />
</g>
		<g transform="matrix(0.9271457235 0 0 0.0798403205 0 51.4532317489)" id="lRKD_HMiYgLr1pcOOILnP"  >
<path style="stroke: rgb(251,60,194); stroke-width: 0; stroke-dasharray: none; stroke-linecap: butt; stroke-dashoffset: 0; stroke-linejoin: miter; stroke-miterlimit: 4; fill: rgb(114,114,114); fill-rule: nonzero; opacity: 1;" vector-effect="non-scaling-stroke"  transform=" translate(-0.000005, 0.00001)" d="M -63.30856 -25.39576 C -63.30856 -46.334419999999994 -61.84685 -63.30857 -60.04373 -63.30857 L 61.17953 -63.30857 L 61.17953 -63.30857 C 62.35537 -63.30857 63.30857 -52.239470000000004 63.30857 -38.58505 L 63.30857 -38.58505 L 63.30857 -38.58505 C 63.30857 17.689229999999995 59.380100000000006 63.308550000000004 54.534090000000006 63.308550000000004 L -55.71736999999999 63.308550000000004 L -55.71736999999999 63.308550000000004 C -59.90986999999999 63.308550000000004 -63.308559999999986 23.84127 -63.308559999999986 -24.84409999999999 z" stroke-linecap="round" />
</g>
		<g transform="matrix(1 0 0 0.7843137302 -5.1177582635 10.9707881467)" id="nQtpxUfXPnLQ1R4hn33ML"  >
<path style="stroke: rgb(0,124,187); stroke-width: 0; stroke-dasharray: none; stroke-linecap: butt; stroke-dashoffset: 0; stroke-linejoin: miter; stroke-miterlimit: 4; fill: rgb(114,114,114); fill-rule: nonzero; opacity: 1;" vector-effect="non-scaling-stroke"  transform=" translate(0.000015, -0.000005)" d="M -38.66751 -32.12287 C -38.66751 -35.73737 -36.36937 -38.6675 -33.53447 -38.6675 L 35.008700000000005 -38.6675 L 35.008700000000005 -38.6675 C 37.0294 -38.6675 38.66749000000001 -36.57893 38.66749000000001 -34.002539999999996 L 38.66749000000001 -0.1000399999999928 L 38.66749000000001 -0.1000399999999928 C 38.66749000000001 21.310690000000008 25.05429000000001 38.66751000000001 8.26157000000001 38.66751000000001 L -8.47219999999999 38.66751000000001 L -8.47219999999999 38.66751000000001 C -25.14860999999999 38.66751000000001 -38.66751999999999 21.430910000000008 -38.66751999999999 0.1684800000000095 z" stroke-linecap="round" />
</g>
</g>
</g>
</svg>